<svg version="1.0" xmlns="http://www.w3.org/2000/svg" width="1280.000000pt" height="1199.000000pt" viewBox="0 0 1280.000000 1199.000000" preserveAspectRatio="xMidYMid meet"><g transform="translate(0.000000,1199.000000) scale(0.100000,-0.100000)" fill="#999999" stroke="none"><path d="M6376 11948 c-3 -24 -15 -160 -26 -303 -73 -916 -107 -1190 -170 -1358 -21 -57 -63 -117 -81 -117 -5 0 -51 39 -101 86 -223 208 -422 305 -755 366 -160 29 -565 32 -745 5 -297 -44 -561 -109 -993 -242 -672 -208 -870 -263 -1130 -309 -246 -44 -436 -61 -502 -44 -40 10 -46 9 -68 -12 -13 -12 -26 -33 -29 -46 -6 -21 34 -464 50 -561 l5 -33 174 0 c96 0 175 -2 175 -5 0 -3 -23 -67 -51 -142 -63 -170 -483 -1311 -589 -1598 -77 -211 -344 -933 -850 -2305 -149 -404 -321 -871 -382 -1038 l-112 -302 -98 0 c-61 0 -98 -4 -98 -10 0 -6 22 -43 49 -83 191 -283 548 -560 1031 -801 531 -265 1113 -345 1745 -241 660 109 1072 344 1739 995 l138 135 -117 5 -117 5 -115 310 c-63 171 -226 614 -363 985 -137 371 -371 1006 -520 1410 -149 404 -383 1039 -520 1410 -137 371 -298 808 -358 970 l-109 295 1865 3 c1026 1 1867 0 1870 -3 4 -4 -7 -362 -68 -2120 -11 -313 -38 -1099 -60 -1745 -53 -1556 -77 -2242 -96 -2785 -9 -247 -13 -484 -10 -526 3 -42 24 -177 46 -300 68 -383 54 -496 -82 -659 -140 -168 -405 -358 -720 -516 -533 -267 -1310 -514 -2140 -680 -19 -4 -28 -12 -28 -25 0 -19 53 -19 3340 -19 3287 0 3340 0 3340 19 0 13 -9 21 -27 25 -1002 200 -1886 506 -2414 836 -238 149 -442 337 -507 465 -58 115 -59 252 -3 537 60 302 62 336 51 633 -5 143 -24 660 -40 1150 -17 490 -39 1151 -50 1470 -42 1223 -81 2354 -110 3210 -16 490 -31 923 -32 963 l-3 72 1849 0 c1756 0 1848 -1 1841 -17 -4 -10 -35 -94 -70 -188 -34 -93 -175 -476 -313 -850 -458 -1242 -790 -2142 -1048 -2840 -139 -379 -320 -870 -401 -1090 l-148 -400 -106 -5 -106 -5 68 -95 c190 -264 427 -460 846 -699 391 -223 751 -335 1186 -371 396 -32 855 26 1227 155 298 104 634 314 955 598 166 148 415 389 415 403 0 10 -24 14 -107 16 l-108 3 -83 225 c-46 124 -195 529 -332 900 -476 1290 -933 2529 -1182 3205 -138 374 -279 757 -313 850 -35 94 -66 178 -70 188 -7 16 6 17 178 17 l186 0 5 33 c16 97 56 540 50 561 -3 13 -16 34 -29 46 -22 20 -28 22 -66 12 -33 -8 -68 -6 -178 13 -297 51 -477 95 -1046 255 -654 184 -876 239 -1150 284 -283 47 -437 59 -700 53 -258 -5 -386 -21 -533 -63 -203 -59 -328 -133 -498 -296 -62 -59 -117 -108 -123 -108 -18 0 -60 60 -81 117 -63 168 -97 442 -170 1358 -26 335 -28 345 -50 345 -13 0 -19 -11 -24 -42z m-3858 -3323 c100 -269 303 -821 452 -1225 304 -823 651 -1765 1009 -2738 133 -358 241 -657 241 -662 0 -7 -638 -10 -1890 -10 -1039 0 -1890 1 -1890 3 0 4 -42 -110 890 2417 149 404 383 1039 520 1410 225 611 462 1253 475 1289 3 8 7 12 9 10 2 -2 85 -224 184 -494z m8009 297 c39 -108 225 -613 413 -1122 188 -509 428 -1161 535 -1450 366 -993 684 -1855 774 -2100 50 -135 91 -248 91 -252 0 -5 -850 -8 -1890 -8 -1240 0 -1890 3 -1890 10 0 5 11 38 25 72 13 35 140 376 280 758 270 733 577 1564 1025 2780 149 404 335 909 413 1122 78 213 144 388 147 388 3 0 37 -89 77 -198z"/></g></svg>
